<?xml version="1.0" encoding="utf-8"?><svg xmlns="http://www.w3.org/2000/svg" xmlns:xlink="http://www.w3.org/1999/xlink"><symbol viewBox="0 0 64 64" id="folder" xmlns="http://www.w3.org/2000/svg"><g data-name="File folder"><path d="M47 27V3H13v24zM12.445 27H13V11a4 4 0 00-4 4v2H7a4 4 0 00-4 4v40l5.489-30.593A4 4 0 0112.445 27zM55 27v-6a4 4 0 00-4-4v10z"/><path d="M55.511 57.593l4.8-26A4 4 0 0056.355 27h-43.91a4 4 0 00-3.956 3.407L3 61h48.555a4 4 0 003.956-3.407z"/><path d="M56.355 27h-4.021a3.942 3.942 0 01-.023.593l-4.8 26A4 4 0 0143.555 57H3.718L3 61h48.555a4 4 0 003.956-3.407l4.8-26A4 4 0 0056.355 27zM47 7H17v20h34V7z"/><path d="M26 27h25V7c0 11.055-11.182 20-25 20z"/><path d="M60.144 27.737A5 5 0 0056.355 26H56v-5a5.009 5.009 0 00-4-4.9V7a1 1 0 00-1-1h-3V3a1 1 0 00-1-1H13a1 1 0 00-1 1v7.1A5.009 5.009 0 008 15v1H7a5.006 5.006 0 00-5 5v40a1.65 1.65 0 00.233.642A1 1 0 003 62h48.555a4.961 4.961 0 004.94-4.225L61.3 31.742a5 5 0 00-1.156-4.005zM54 21v5h-2v-7.816A3 3 0 0154 21zm-4 5H18V8h32zM14 4h32v2H17a1 1 0 00-1 1v19h-2zM4 21a3 3 0 013-3h2a1 1 0 001-1v-2a3 3 0 012-2.816V26.04a4.943 4.943 0 00-4.5 4.19L4 49.763zm55.328 10.412l-4.806 26.033A3.019 3.019 0 0151.555 60H4.2l5.278-29.445A3.019 3.019 0 0112.445 28h43.91a3 3 0 012.973 3.412z"/><path d="M47 14H21a1 1 0 000 2h26a1 1 0 000-2zm-26-4a1 1 0 000 2h26a1 1 0 000-2zm26 8H21a1 1 0 000 2h26a1 1 0 000-2zm0 4H21a1 1 0 000 2h26a1 1 0 000-2z"/></g></symbol></svg>